<svg width="233" height="80" viewBox="0 0 233 80" fill="none" xmlns="http://www.w3.org/2000/svg">
<rect width="233" height="80" fill="#E5E5E5"/>
<rect width="233" height="80" fill="#1163DD"/>
<path d="M49.1367 20.7656L41.6484 26.4609C41.6953 27.8672 41.7188 29.2031 41.7188 30.4688C41.7188 31.7109 41.7188 32.918 41.7188 34.0898C41.7188 38.3789 41.6367 41.9766 41.4727 44.8828C41.3086 47.7656 41.1328 50.1211 40.9453 51.9492C40.7109 54.082 40.4648 55.7812 40.207 57.0469C39.7617 58.7109 39.082 60.3633 38.168 62.0039C37.2539 63.6211 36.082 65.0859 34.6523 66.3984C33.2461 67.7109 31.5469 68.7656 29.5547 69.5625C27.5859 70.3828 25.3008 70.793 22.6992 70.793C19.8633 70.793 17.4023 70.3594 15.3164 69.4922C13.2305 68.6484 11.4961 67.5352 10.1133 66.1523C8.75391 64.7461 7.73438 63.1758 7.05469 61.4414C6.39844 59.6836 6.07031 57.9258 6.07031 56.168C6.07031 54.832 6.28125 53.543 6.70312 52.3008C7.14844 51.0586 7.76953 49.957 8.56641 48.9961C9.36328 48.0352 10.3125 47.2734 11.4141 46.7109C12.5156 46.125 13.7344 45.832 15.0703 45.832C16.1953 45.832 17.3906 46.043 18.6562 46.4648C17.8125 46.957 17.0859 47.5078 16.4766 48.1172C15.8906 48.7266 15.3867 49.3594 14.9648 50.0156C14.5664 50.6719 14.25 51.3281 14.0156 51.9844C13.7812 52.6172 13.6055 53.2266 13.4883 53.8125C13.3711 54.375 13.2891 54.8789 13.2422 55.3242C13.2188 55.7695 13.207 56.1094 13.207 56.3438C13.207 57.9375 13.418 59.3906 13.8398 60.7031C14.2852 61.9922 14.8945 63.1055 15.668 64.043C16.4648 64.957 17.4141 65.6719 18.5156 66.1875C19.6172 66.6797 20.8242 66.9258 22.1367 66.9258C23.7773 66.9258 25.2539 66.5859 26.5664 65.9062C27.9023 65.2031 29.0391 64.1836 29.9766 62.8477C30.9141 61.5117 31.6406 59.8594 32.1562 57.8906C32.6719 55.8984 32.9297 53.6016 32.9297 51C32.9297 49.2891 32.8711 47.4844 32.7539 45.5859C32.6602 43.6641 32.5195 41.7305 32.332 39.7852C32.168 37.8164 31.9688 35.8594 31.7344 33.9141C31.5 31.9688 31.2539 30.1055 30.9961 28.3242L21.6094 22.7695L49.1367 20.7656ZM59.4023 66.9961C59.4023 67.7461 59.2031 68.3906 58.8047 68.9297C58.4297 69.4688 57.9609 69.9023 57.3984 70.2305C56.8359 70.582 56.25 70.8281 55.6406 70.9688C55.0312 71.1328 54.5039 71.2148 54.0586 71.2148C53.5664 71.2148 53.0156 71.1328 52.4062 70.9688C51.7969 70.8281 51.2227 70.582 50.6836 70.2305C50.1445 69.9023 49.6875 69.4688 49.3125 68.9297C48.9375 68.3906 48.75 67.7461 48.75 66.9961C48.75 66.1992 48.9375 65.5195 49.3125 64.957C49.6875 64.3945 50.1445 63.9375 50.6836 63.5859C51.2227 63.2109 51.7969 62.9414 52.4062 62.7773C53.0156 62.6133 53.5664 62.5312 54.0586 62.5312C54.5039 62.5312 55.0312 62.6133 55.6406 62.7773C56.25 62.9414 56.8359 63.2109 57.3984 63.5859C57.9609 63.9375 58.4297 64.3945 58.8047 64.957C59.2031 65.5195 59.4023 66.1992 59.4023 66.9961ZM106.688 45.5859L100.922 51.3516L99.6914 70.6523L96.5273 64.6758C94.7695 66.5039 92.7422 67.9102 90.4453 68.8945C88.1719 69.8789 85.8633 70.3711 83.5195 70.3711C82.043 70.3711 80.543 70.1602 79.0195 69.7383C77.4961 69.3398 76.0078 68.7188 74.5547 67.875C73.1016 67.0078 71.7305 65.918 70.4414 64.6055C69.1758 63.293 68.0625 61.7461 67.1016 59.9648C66.1641 58.1602 65.4141 56.1094 64.8516 53.8125C64.2891 51.5156 64.0078 48.9492 64.0078 46.1133C64.0078 42.7617 64.3945 39.8086 65.168 37.2539C65.9414 34.6992 66.9609 32.4844 68.2266 30.6094C69.4922 28.7344 70.9219 27.1758 72.5156 25.9336C74.1094 24.6914 75.7266 23.6953 77.3672 22.9453C79.0078 22.1953 80.6016 21.668 82.1484 21.3633C83.7188 21.0586 85.0781 20.9062 86.2266 20.9062C87.4453 20.9766 88.6875 21.1758 89.9531 21.5039C91.0078 21.7852 92.1562 22.2305 93.3984 22.8398C94.6406 23.4492 95.8008 24.293 96.8789 25.3711L104.895 19.3242L94.3828 38.2734V28.3945C93.5625 27.5977 92.6719 26.9883 91.7109 26.5664C90.7734 26.1445 89.8945 25.8398 89.0742 25.6523C88.2539 25.4414 87.5391 25.3242 86.9297 25.3008C86.3438 25.2539 85.9922 25.2305 85.875 25.2305C84.1641 25.3008 82.5352 25.8398 80.9883 26.8477C79.4414 27.8555 78.0703 29.2617 76.875 31.0664C75.7031 32.8477 74.7656 34.9922 74.0625 37.5C73.3594 39.9844 73.0078 42.7617 73.0078 45.832C73.0078 48.9258 73.3594 51.7148 74.0625 54.1992C74.7656 56.6836 75.7266 58.8047 76.9453 60.5625C78.1875 62.2969 79.6406 63.6328 81.3047 64.5703C82.9688 65.5078 84.7617 65.9766 86.6836 65.9766C86.8477 65.9766 87.1875 65.9648 87.7031 65.9414C88.2188 65.8945 88.8398 65.7422 89.5664 65.4844C90.293 65.2266 91.0781 64.8164 91.9219 64.2539C92.7656 63.668 93.6094 62.8477 94.4531 61.793L93.2227 52.7227L84.6445 48.2578L106.688 45.5859ZM118.605 66.9961C118.605 67.7461 118.406 68.3906 118.008 68.9297C117.633 69.4688 117.164 69.9023 116.602 70.2305C116.039 70.582 115.453 70.8281 114.844 70.9688C114.234 71.1328 113.707 71.2148 113.262 71.2148C112.77 71.2148 112.219 71.1328 111.609 70.9688C111 70.8281 110.426 70.582 109.887 70.2305C109.348 69.9023 108.891 69.4688 108.516 68.9297C108.141 68.3906 107.953 67.7461 107.953 66.9961C107.953 66.1992 108.141 65.5195 108.516 64.957C108.891 64.3945 109.348 63.9375 109.887 63.5859C110.426 63.2109 111 62.9414 111.609 62.7773C112.219 62.6133 112.77 62.5312 113.262 62.5312C113.707 62.5312 114.234 62.6133 114.844 62.7773C115.453 62.9414 116.039 63.2109 116.602 63.5859C117.164 63.9375 117.633 64.3945 118.008 64.957C118.406 65.5195 118.605 66.1992 118.605 66.9961ZM152.602 19.2539L163.184 61.7227L171.551 62.9531L151.758 71.3906L158.508 62.8125L154.57 53.0039L136.43 53.6016L132.738 64.043L139.523 72.9727L118.5 64.6758L128.836 63.6562L131.789 53.7422H130.066L127.113 49.9805L133.09 49.3477L139.453 28.1133L132.246 24.3516L152.602 19.2539ZM138.082 48.7852L152.109 47.168L144.902 29.3438L138.082 48.7852ZM181.324 66.9961C181.324 67.7461 181.125 68.3906 180.727 68.9297C180.352 69.4688 179.883 69.9023 179.32 70.2305C178.758 70.582 178.172 70.8281 177.562 70.9688C176.953 71.1328 176.426 71.2148 175.98 71.2148C175.488 71.2148 174.938 71.1328 174.328 70.9688C173.719 70.8281 173.145 70.582 172.605 70.2305C172.066 69.9023 171.609 69.4688 171.234 68.9297C170.859 68.3906 170.672 67.7461 170.672 66.9961C170.672 66.1992 170.859 65.5195 171.234 64.957C171.609 64.3945 172.066 63.9375 172.605 63.5859C173.145 63.2109 173.719 62.9414 174.328 62.7773C174.938 62.6133 175.488 62.5312 175.98 62.5312C176.426 62.5312 176.953 62.6133 177.562 62.7773C178.172 62.9414 178.758 63.2109 179.32 63.5859C179.883 63.9375 180.352 64.3945 180.727 64.957C181.125 65.5195 181.324 66.1992 181.324 66.9961ZM226.57 32.8594C226.57 35.0156 226.254 36.832 225.621 38.3086C224.988 39.7852 224.145 41.0039 223.09 41.9648C222.035 42.9258 220.828 43.6758 219.469 44.2148C218.109 44.7539 216.715 45.1406 215.285 45.375C217.09 46.0312 218.555 46.8633 219.68 47.8711C220.828 48.8789 221.719 49.9336 222.352 51.0352C223.008 52.1133 223.453 53.1797 223.688 54.2344C223.922 55.2656 224.039 56.1328 224.039 56.8359C224.039 58.5938 223.781 60.1289 223.266 61.4414C222.75 62.7539 222.047 63.8789 221.156 64.8164C220.289 65.7539 219.27 66.5273 218.098 67.1367C216.926 67.7461 215.672 68.2383 214.336 68.6133C213.023 68.9648 211.664 69.2109 210.258 69.3516C208.875 69.4922 207.527 69.5625 206.215 69.5625C205.77 69.5625 205.312 69.5508 204.844 69.5273C204.398 69.5273 203.836 69.5039 203.156 69.457C202.477 69.4336 201.621 69.3867 200.59 69.3164C199.582 69.2461 198.281 69.1523 196.688 69.0352C195.094 68.918 193.16 68.7773 190.887 68.6133C188.613 68.4258 185.895 68.2148 182.73 67.9805L191.238 62.7422L193.734 25.582L184.523 19.6055C188.859 19.6523 192.656 19.6992 195.914 19.7461C199.195 19.793 201.961 19.8398 204.211 19.8867C206.836 19.9336 209.086 19.9805 210.961 20.0273C212.789 20.0273 214.629 20.3086 216.48 20.8711C218.355 21.4102 220.031 22.2187 221.508 23.2969C223.008 24.375 224.227 25.7227 225.164 27.3398C226.102 28.9336 226.57 30.7734 226.57 32.8594ZM217.289 33.0703C217.289 32.8594 217.254 32.4961 217.184 31.9805C217.137 31.4414 216.973 30.8438 216.691 30.1875C216.434 29.5078 216.023 28.8047 215.461 28.0781C214.898 27.3281 214.113 26.6484 213.105 26.0391C212.098 25.4297 210.82 24.9258 209.273 24.5273C207.75 24.1055 205.887 23.8828 203.684 23.8594C202.512 23.8594 201.363 23.9297 200.238 24.0703V43.5117C200.848 43.5586 201.457 43.582 202.066 43.582C202.676 43.582 203.215 43.582 203.684 43.582C205.934 43.582 207.832 43.3594 209.379 42.9141C210.926 42.4688 212.203 41.8945 213.211 41.1914C214.219 40.4883 214.992 39.7266 215.531 38.9062C216.094 38.0625 216.504 37.2539 216.762 36.4805C217.02 35.6836 217.172 34.9805 217.219 34.3711C217.266 33.7617 217.289 33.3281 217.289 33.0703ZM203.895 47.3438C203.379 47.3438 202.793 47.3438 202.137 47.3438C201.48 47.3438 200.848 47.3672 200.238 47.4141V64.3242C201.293 64.5117 202.266 64.6406 203.156 64.7109C204.047 64.7812 204.938 64.8164 205.828 64.8164C207.023 64.8164 208.207 64.6875 209.379 64.4297C210.574 64.1484 211.641 63.6797 212.578 63.0234C213.539 62.3438 214.312 61.4414 214.898 60.3164C215.484 59.1914 215.777 57.7852 215.777 56.0977C215.777 55.2305 215.578 54.2812 215.18 53.25C214.781 52.2188 214.125 51.2695 213.211 50.4023C212.297 49.5352 211.078 48.8086 209.555 48.2227C208.031 47.6367 206.145 47.3438 203.895 47.3438Z" fill="black"/>
</svg>
